<svg xmlns="http://www.w3.org/2000/svg" xmlns:xlink="http://www.w3.org/1999/xlink" width="2656" height="1760"><g transform="translate(0 0)"><path d="M680 120h1480v1100H680z" stroke="#333" stroke-width="2" fill="#fff"/><use xlink:href="#a" transform="matrix(1,0,0,1,685,125) translate(735 549)"/><path d="M1160 220h260v280h-260z" stroke="#333" stroke-width="2" fill="#fff"/><use xlink:href="#b" transform="matrix(1,0,0,1,1165,225) translate(92.99479166666666 138.99739583333334)"/><path d="M1140 240h120v40h-120z" fill="none"/><use xlink:href="#c" transform="matrix(1,0,0,1,1145,245) translate(22.994791666666664 18.997395833333332)"/><path d="M1140 280h120v40h-120z" fill="none"/><use xlink:href="#d" transform="matrix(1,0,0,1,1145,285) translate(30.996093749999996 18.997395833333332)"/><path d="M1140 320h120v40h-120z" fill="none"/><use xlink:href="#e" transform="matrix(1,0,0,1,1145,325) translate(22.994791666666664 18.997395833333332)"/><path d="M1140 360h120v40h-120z" fill="none"/><use xlink:href="#f" transform="matrix(1,0,0,1,1145,365) translate(22.994791666666664 18.997395833333332)"/><path d="M1140 400h120v40h-120z" fill="none"/><use xlink:href="#g" transform="matrix(1,0,0,1,1145,405) translate(18.994140625 18.997395833333332)"/><path d="M1140 440h120v40h-120z" fill="none"/><use xlink:href="#h" transform="matrix(1,0,0,1,1145,445) translate(26.99544270833333 18.997395833333332)"/><path d="M1320 260h120v40h-120z" fill="none"/><use xlink:href="#i" transform="matrix(1,0,0,1,1325,265) translate(18.994140625 18.997395833333332)"/><path d="M1320 300h120v40h-120z" fill="none"/><use xlink:href="#j" transform="matrix(1,0,0,1,1325,305) translate(38.99739583333333 18.997395833333332)"/><path d="M1320 350h120v40h-120z" fill="none"/><use xlink:href="#k" transform="matrix(1,0,0,1,1325,355) translate(34.996744791666664 18.997395833333332)"/><path d="M1320 400h120v40h-120z" fill="none"/><use xlink:href="#l" transform="matrix(1,0,0,1,1325,405) translate(22.994791666666664 18.997395833333332)"/><path d="M1740 220h260v280h-260z" stroke="#333" stroke-width="2" fill="#fff"/><use xlink:href="#m" transform="matrix(1,0,0,1,1745,225) translate(92.99479166666666 138.99739583333334)"/><path d="M1720 240h120v40h-120z" fill="none"/><use xlink:href="#c" transform="matrix(1,0,0,1,1725,245) translate(22.994791666666664 18.997395833333332)"/><path d="M1720 280h120v40h-120z" fill="none"/><use xlink:href="#d" transform="matrix(1,0,0,1,1725,285) translate(30.996093749999996 18.997395833333332)"/><path d="M1720 320h120v40h-120z" fill="none"/><use xlink:href="#e" transform="matrix(1,0,0,1,1725,325) translate(22.994791666666664 18.997395833333332)"/><path d="M1720 360h120v40h-120z" fill="none"/><use xlink:href="#f" transform="matrix(1,0,0,1,1725,365) translate(22.994791666666664 18.997395833333332)"/><path d="M1720 400h120v40h-120z" fill="none"/><use xlink:href="#g" transform="matrix(1,0,0,1,1725,405) translate(18.994140625 18.997395833333332)"/><path d="M1720 440h120v40h-120z" fill="none"/><use xlink:href="#h" transform="matrix(1,0,0,1,1725,445) translate(26.99544270833333 18.997395833333332)"/><path d="M1900 260h120v40h-120z" fill="none"/><use xlink:href="#i" transform="matrix(1,0,0,1,1905,265) translate(18.994140625 18.997395833333332)"/><path d="M1900 300h120v40h-120z" fill="none"/><use xlink:href="#j" transform="matrix(1,0,0,1,1905,305) translate(38.99739583333333 18.997395833333332)"/><path d="M1900 350h120v40h-120z" fill="none"/><use xlink:href="#k" transform="matrix(1,0,0,1,1905,355) translate(34.996744791666664 18.997395833333332)"/><path d="M1900 400h120v40h-120z" fill="none"/><use xlink:href="#l" transform="matrix(1,0,0,1,1905,405) translate(22.994791666666664 18.997395833333332)"/><path d="M1780 690h300v100h-300z" stroke="#333" stroke-width="2" fill="#fff"/><use xlink:href="#n" transform="matrix(1,0,0,1,1785,695) translate(132.998046875 48.997395833333336)"/><path d="M1800 680h120v40h-120z" fill="none"/><use xlink:href="#o" transform="matrix(1,0,0,1,1805,685) translate(42.998046875 18.997395833333332)"/><path d="M1920 680h120v40h-120z" fill="none"/><use xlink:href="#p" transform="matrix(1,0,0,1,1925,685) translate(42.998046875 18.997395833333332)"/><path d="M1740 720h120v40h-120z" fill="none"/><use xlink:href="#q" transform="matrix(1,0,0,1,1745,725) translate(46.998697916666664 18.997395833333332)"/><path d="M1780 760h120v40h-120z" fill="none"/><use xlink:href="#r" transform="matrix(1,0,0,1,1785,765) translate(38.99739583333333 18.997395833333332)"/><path d="M1860 760h120v40h-120z" fill="none"/><use xlink:href="#s" transform="matrix(1,0,0,1,1865,765) translate(42.998046875 18.997395833333332)"/><path d="M1960 760h120v40h-120z" fill="none"/><use xlink:href="#t" transform="matrix(1,0,0,1,1965,765) translate(34.996744791666664 18.997395833333332)"/><path d="M1800 880h260v200h-260z" stroke="#333" stroke-width="2" fill="#fff"/><use xlink:href="#u" transform="matrix(1,0,0,1,1805,885) translate(108.99739583333333 98.99739583333333)"/><path d="M1780 900h120v40h-120z" fill="none"/><use xlink:href="#v" transform="matrix(1,0,0,1,1785,905) translate(46.998697916666664 18.997395833333332)"/><path d="M1780 960h120v40h-120z" fill="none"/><use xlink:href="#q" transform="matrix(1,0,0,1,1785,965) translate(46.998697916666664 18.997395833333332)"/><path d="M1780 1020h120v40h-120z" fill="none"/><use xlink:href="#w" transform="matrix(1,0,0,1,1785,1025) translate(26.99544270833333 18.997395833333332)"/><path d="M1960 900h120v40h-120z" fill="none"/><use xlink:href="#x" transform="matrix(1,0,0,1,1965,905) translate(38.99739583333333 18.997395833333332)"/><path d="M1960 960h120v40h-120z" fill="none"/><use xlink:href="#y" transform="matrix(1,0,0,1,1965,965) translate(34.996744791666664 18.997395833333332)"/><path d="M1960 1020h120v40h-120z" fill="none"/><use xlink:href="#z" transform="matrix(1,0,0,1,1965,1025) translate(22.994791666666664 18.997395833333332)"/><path d="M1160 760h260v420h-260z" stroke="#333" stroke-width="2" fill="#fff"/><use xlink:href="#A" transform="matrix(1,0,0,1,1165,765) translate(72.99153645833334 208.99739583333334)"/><path d="M678.68 220.67L520 220" stroke="#000" stroke-width="2" fill="none"/><path d="M678.68 220.67l-14.3 4.57.05-9.27z"/><path d="M680 220.05v1.24l-16.6 5.3.04-12zm-14.6 3.82l10.04-3.22-10.02-3.3z"/><path fill="#fff" d="M587.34 213.67h24V227h-24z"/><use xlink:href="#B" transform="matrix(1,0,0,1,587.3363805142151,213.66666666660663) translate(0 10.6640625)"/><path d="M678.68 320.67H520" stroke="#000" stroke-width="2" fill="none"/><path d="M678.68 320.67l-14.27 4.63v-9.27z"/><path d="M680 320.05v1.24l-16.6 5.38v-12.03zm-14.6 3.88l10.04-3.26-10.03-3.26z"/><path fill="#fff" d="M587.34 314h24v13.33h-24z"/><use xlink:href="#C" transform="matrix(1,0,0,1,587.3361425119009,313.99999999999983) translate(0 10.6640625)"/><path d="M678.68 420H520" stroke="#000" stroke-width="2" fill="none"/><path d="M678.68 420l-14.27 4.64v-9.28z"/><path d="M680 419.38v1.24l-16.6 5.4v-12.03zm-14.6 3.88l10.04-3.26-10.03-3.26z"/><path fill="#fff" d="M571.33 413.33h56v13.33h-56z"/><use xlink:href="#D" transform="matrix(1,0,0,1,571.3335383452343,413.3333333333333) translate(0 10.6640625)"/><path d="M884 260v240l72-48V308z" stroke="#333" stroke-width="2" fill="#fff"/><path d="M860 260h120v240H860z" fill="none"/><path d="M884 380h-24zM956 344h24M956 416h24M920 476v24" stroke="#333" stroke-width="2" fill="#fff"/><path d="M679 520H520" stroke="#000" stroke-width="2" fill="none"/><path d="M679 520l-14.27 4.64v-9.28z"/><path d="M680 519.27v1.46L663.73 526v-12zm-14.27 4l10.03-3.27-10.03-3.26z"/><path fill="#fff" d="M596.36 513.33h24v13.33h-24z"/><use xlink:href="#E" transform="matrix(1,0,0,1,596.3570662439738,513.3333333333335) translate(0 10.6640625)"/><path d="M679 620H520" stroke="#000" stroke-width="2" fill="none"/><path d="M679 620l-14.27 4.64v-9.28z"/><path d="M680 619.27v1.46L663.73 626v-12zm-14.27 4l10.03-3.27-10.03-3.26z"/><path fill="#fff" d="M572.4 613.33h88.02v13.33h-88z"/><use xlink:href="#F" transform="matrix(1,0,0,1,572.4079685615521,613.3333333333335) translate(0 10.6640625)"/><path d="M860 380h-50v40.14H684.8M684.8 420.14h-3M980 344h89.5v-84.67h89.5" stroke="#c92d39" stroke-width="2" fill="none"/><path d="M1160 260.33h-1v-2h1z" fill="#c92d39"/><path d="M980 416h20V200h719v59.33h20" stroke="#c92d39" stroke-width="2" fill="none"/><path d="M1740 260.33h-1v-2h1z" fill="#c92d39"/><path d="M884 540v240l72-48V588z" stroke="#333" stroke-width="2" fill="#fff"/><path d="M860 540h120v240H860z" fill="none"/><path d="M884 660h-24zM956 624h24M956 696h24M920 756v24" stroke="#333" stroke-width="2" fill="#fff"/><path d="M860 660h-70v-40.03H681M681 619.97h-3" stroke="#3aa6dd" stroke-width="2" fill="none"/><path d="M920 500v20H809.84v-99.84h-40M769.84 420.16h-3" stroke="#c92d39" stroke-width="2" fill="none"/><path d="M920 780v40h-91.8V660.02h-31.8M796.4 660.02h-3M980 624h110V340.92h69" stroke="#3aa6dd" stroke-width="2" fill="none"/><path d="M1160 341.92h-1v-2h1z" fill="#3aa6dd"/><path d="M980 696h500V382.77h259" stroke="#3aa6dd" stroke-width="2" fill="none"/><path d="M1740 383.77h-1v-2h1z" fill="#3aa6dd"/><path d="M1090 379.5l69 .5" stroke="#3aa6dd" stroke-width="2" fill="none"/><path d="M1160 379v2h-1v-2z" fill="#3aa6dd"/><path d="M1740 340h-93.33v42.77" stroke="#3aa6dd" stroke-width="2" fill="none"/><path d="M1420 420h270v249h169.85v20" stroke="#ffdf71" stroke-width="2" fill="none"/><path d="M1860.85 690h-2v-1h2z" fill="#ffdf71"/><path d="M2001 417.65h59V669h-83.82v20" stroke="#ffdf71" stroke-width="2" fill="none"/><path d="M2001 418.65h-1v-2h1zM1977.18 690h-2v-1h2z" fill="#ffdf71"/><path d="M1780 740h-179.5v51.8H1421" stroke="#000" stroke-width="2" fill="none"/><path d="M1421 792.8h-1v-2h1z"/><path d="M1159 455.4h-40V739h88.98v20" stroke="#000" stroke-width="2" fill="none"/><path d="M1160 456.4h-1v-2h1zM1208.98 760h-2v-1h2z"/><path d="M1739 462.56h-251.84V740h-252.84v19" stroke="#000" stroke-width="2" fill="none"/><path d="M1740 463.56h-1v-2h1zM1235.32 760h-2v-1h2z"/><path d="M1421 914.35h378" stroke="#000" stroke-width="2" fill="none"/><path d="M1421 915.35h-1v-2h1zM1800 915.35h-1v-2h1z"/><path d="M1800 980h-379" stroke="#000" stroke-width="2" fill="none"/><path d="M1421 981h-1v-2h1z"/><path d="M1919.38 791v40H1759v210.7h40" stroke="#ffdf71" stroke-width="2" fill="none"/><path d="M1920.38 791h-2v-1h2zM1800 1042.7h-1v-2h1z" fill="#ffdf71"/><path d="M2318.68 1120.67L2160 1120" stroke="#000" stroke-width="2" fill="none"/><path d="M2318.68 1120.67l-14.3 4.57.05-9.27z" stroke="#000" stroke-width="2"/><path fill="#fff" d="M2191.33 1113.67h96.02V1127h-96.02z"/><use xlink:href="#G" transform="matrix(1,0,0,1,2191.330283136901,1113.6666616667167) translate(0 10.6640625)"/><path d="M2318.8 1040.7l-158.66-.68" stroke="#000" stroke-width="2" fill="none"/><path d="M2318.8 1040.7l-14.27 4.57.03-9.27z" stroke="#000" stroke-width="2"/><path fill="#fff" d="M2215.47 1033.7h48V1047h-48z"/><use xlink:href="#H" transform="matrix(1,0,0,1,2215.46921862033,1033.6902308346546) translate(0 10.6640625)"/><path d="M2060 1040h49.32v79.84h49.32M2158.64 1119.84h3" stroke="#3aa6dd" stroke-width="2" fill="none"/><path d="M1160 300v10h-80v551.04h79" stroke="#c92d39" stroke-width="2" fill="none"/><path d="M1160 862.04h-1v-2h1z" fill="#c92d39"/><path d="M1421 825.94h159V299.7h159" stroke="#c92d39" stroke-width="2" fill="none"/><path d="M1421 826.94h-1v-2h1zM1740 300.7h-1v-2h1z" fill="#c92d39"/><defs><path d="M365-904c58-129 161-200 334-200 130 0 228 46 293 138s98 233 98 420c0 189-34 331-102 425S824 20 698 20c-170 0-275-64-336-184 0 55-3 116-9 164H179c5-68 6-147 6-223v-1261h180c-2 193 4 394-4 580h4zm283 791c221 0 256-197 256-427 0-229-34-425-254-425-236 0-285 195-285 441 0 237 53 411 283 411" id="I"/><path d="M528 20c-247 0-343-132-343-381v-721h180v686c-4 177 45 284 224 277 194-8 279-136 279-336v-627h181c3 360-6 732 6 1082H885c-4-54-7-126-8-185h-3C809-64 714 20 528 20" id="J"/><path d="M839-1335c-182-6-269 67-259 253h491v142H580V0H400v-940H138v-142h262c-15-293 132-408 418-402 94 2 200 7 281 21v145c-75-10-177-14-260-17" id="K"/><path d="M617-1102c355 0 481 238 477 599H322c5 222 84 388 301 388 144 0 244-59 284-166l158 45C1002-72 854 20 623 20c-342 0-490-220-490-568 0-346 151-554 484-554zm291 461c-18-192-90-328-289-328-194 0-287 128-295 328h584" id="L"/><path d="M839-1102c70 0 148 7 206 17v167c-112-18-268-36-363 15-129 69-208 203-208 395V0H294c-10-367 32-789-52-1082h171c21 75 41 161 48 250h5c67-152 152-270 373-270" id="M"/><path d="M-5 220v-96h1238v96H-5" id="N"/><path d="M148-1120c216-7 379-89 463-229h166v1204h353V0H157v-145h439v-1021c-79 124-254 184-448 194v-148" id="O"/><g id="b"><use transform="matrix(0.006510416666666667,0,0,0.006510416666666667,0,0)" xlink:href="#I"/><use transform="matrix(0.006510416666666667,0,0,0.006510416666666667,8.001302083333334,0)" xlink:href="#J"/><use transform="matrix(0.006510416666666667,0,0,0.006510416666666667,16.002604166666668,0)" xlink:href="#K"/><use transform="matrix(0.006510416666666667,0,0,0.006510416666666667,24.00390625,0)" xlink:href="#K"/><use transform="matrix(0.006510416666666667,0,0,0.006510416666666667,32.005208333333336,0)" xlink:href="#L"/><use transform="matrix(0.006510416666666667,0,0,0.006510416666666667,40.00651041666667,0)" xlink:href="#M"/><use transform="matrix(0.006510416666666667,0,0,0.006510416666666667,48.00781250000001,0)" xlink:href="#N"/><use transform="matrix(0.006510416666666667,0,0,0.006510416666666667,56.00911458333335,0)" xlink:href="#O"/></g><path d="M904-1102c199 0 220 177 220 381V0H956v-686c-3-114 0-215-60-264-70-33-125-4-158 71-26 56-39 140-39 252V0H531v-686c-3-114-1-215-61-264-78-41-136 24-157 84-24 69-39 159-39 259V0H105c-3-360 6-732-6-1082h149c6 50 3 123 8 175 36-100 83-195 216-195 135 0 166 79 196 196 42-105 93-196 236-196" id="P"/><path d="M745-142h380V0H143v-142h422v-798H246v-142h499v940zM545-1292v-192h200v192H545" id="Q"/><path d="M1000-272c3 95 12 159 101 161 21 0 41-3 59-7V-6c-44 10-86 16-139 16-141 2-191-84-197-217h-6C748-76 648 20 446 20c-207 0-318-120-318-322 0-266 194-348 454-354l236-4c12-191-40-305-222-305-140 0-220 47-232 172l-188-17c33-204 181-292 423-292 255 0 401 118 401 364v466zm-683-27c0 109 63 184 175 182 166-3 259-96 306-217 24-65 20-120 20-200-232 7-501-28-501 235" id="R"/><path d="M865-914c-3-187-2-380-2-570h180v1261c0 76 1 155 6 223H877c-8-49-9-116-10-174h-5C801-44 708 26 530 26c-135 0-234-46-297-139s-95-232-95-419c0-377 131-566 392-566 176 0 271 63 335 184zm-286-51c-222 0-255 197-255 427 0 229 31 425 253 425 237 0 286-195 286-441 0-238-52-411-284-411" id="S"/><g id="c"><use transform="matrix(0.006510416666666667,0,0,0.006510416666666667,0,0)" xlink:href="#P"/><use transform="matrix(0.006510416666666667,0,0,0.006510416666666667,8.001302083333334,0)" xlink:href="#Q"/><use transform="matrix(0.006510416666666667,0,0,0.006510416666666667,16.002604166666668,0)" xlink:href="#I"/><use transform="matrix(0.006510416666666667,0,0,0.006510416666666667,24.00390625,0)" xlink:href="#N"/><use transform="matrix(0.006510416666666667,0,0,0.006510416666666667,32.005208333333336,0)" xlink:href="#R"/><use transform="matrix(0.006510416666666667,0,0,0.006510416666666667,40.00651041666667,0)" xlink:href="#S"/><use transform="matrix(0.006510416666666667,0,0,0.006510416666666667,48.00781250000001,0)" xlink:href="#S"/><use transform="matrix(0.006510416666666667,0,0,0.006510416666666667,56.00911458333335,0)" xlink:href="#M"/></g><path d="M706-1102c241 0 344 136 343 381V0H868v-695c1-168-57-273-220-268-190 6-283 138-283 336V0H185c-3-360 6-732-6-1082h170c4 54 7 126 8 185h3c63-121 164-204 346-205" id="T"/><g id="d"><use transform="matrix(0.006510416666666667,0,0,0.006510416666666667,0,0)" xlink:href="#P"/><use transform="matrix(0.006510416666666667,0,0,0.006510416666666667,8.001302083333334,0)" xlink:href="#Q"/><use transform="matrix(0.006510416666666667,0,0,0.006510416666666667,16.002604166666668,0)" xlink:href="#I"/><use transform="matrix(0.006510416666666667,0,0,0.006510416666666667,24.00390625,0)" xlink:href="#N"/><use transform="matrix(0.006510416666666667,0,0,0.006510416666666667,32.005208333333336,0)" xlink:href="#L"/><use transform="matrix(0.006510416666666667,0,0,0.006510416666666667,40.00651041666667,0)" xlink:href="#T"/></g><path d="M682 16c-209 0-323-80-324-285v-671H190v-142h170l58-282h120v282h432v142H538v652c2 114 60 155 182 155 106 0 209-16 297-34v137C921-4 806 16 682 16" id="U"/><g id="e"><use transform="matrix(0.006510416666666667,0,0,0.006510416666666667,0,0)" xlink:href="#S"/><use transform="matrix(0.006510416666666667,0,0,0.006510416666666667,8.001302083333334,0)" xlink:href="#U"/><use transform="matrix(0.006510416666666667,0,0,0.006510416666666667,16.002604166666668,0)" xlink:href="#T"/><use transform="matrix(0.006510416666666667,0,0,0.006510416666666667,24.00390625,0)" xlink:href="#N"/><use transform="matrix(0.006510416666666667,0,0,0.006510416666666667,32.005208333333336,0)" xlink:href="#R"/><use transform="matrix(0.006510416666666667,0,0,0.006510416666666667,40.00651041666667,0)" xlink:href="#S"/><use transform="matrix(0.006510416666666667,0,0,0.006510416666666667,48.00781250000001,0)" xlink:href="#S"/><use transform="matrix(0.006510416666666667,0,0,0.006510416666666667,56.00911458333335,0)" xlink:href="#M"/></g><g id="f"><use transform="matrix(0.006510416666666667,0,0,0.006510416666666667,0,0)" xlink:href="#S"/><use transform="matrix(0.006510416666666667,0,0,0.006510416666666667,8.001302083333334,0)" xlink:href="#U"/><use transform="matrix(0.006510416666666667,0,0,0.006510416666666667,16.002604166666668,0)" xlink:href="#T"/><use transform="matrix(0.006510416666666667,0,0,0.006510416666666667,24.00390625,0)" xlink:href="#N"/><use transform="matrix(0.006510416666666667,0,0,0.006510416666666667,32.005208333333336,0)" xlink:href="#S"/><use transform="matrix(0.006510416666666667,0,0,0.006510416666666667,40.00651041666667,0)" xlink:href="#R"/><use transform="matrix(0.006510416666666667,0,0,0.006510416666666667,48.00781250000001,0)" xlink:href="#U"/><use transform="matrix(0.006510416666666667,0,0,0.006510416666666667,56.00911458333335,0)" xlink:href="#R"/></g><path d="M715 0H502L69-1082h202c94 253 197 500 285 758 19 57 36 126 52 183 96-335 234-626 350-941h201" id="V"/><path d="M736-142h380V0H134v-142h422v-1200H267v-142h469v1342" id="W"/><g id="g"><use transform="matrix(0.006510416666666667,0,0,0.006510416666666667,0,0)" xlink:href="#S"/><use transform="matrix(0.006510416666666667,0,0,0.006510416666666667,8.001302083333334,0)" xlink:href="#U"/><use transform="matrix(0.006510416666666667,0,0,0.006510416666666667,16.002604166666668,0)" xlink:href="#T"/><use transform="matrix(0.006510416666666667,0,0,0.006510416666666667,24.00390625,0)" xlink:href="#N"/><use transform="matrix(0.006510416666666667,0,0,0.006510416666666667,32.005208333333336,0)" xlink:href="#V"/><use transform="matrix(0.006510416666666667,0,0,0.006510416666666667,40.00651041666667,0)" xlink:href="#R"/><use transform="matrix(0.006510416666666667,0,0,0.006510416666666667,48.00781250000001,0)" xlink:href="#W"/><use transform="matrix(0.006510416666666667,0,0,0.006510416666666667,56.00911458333335,0)" xlink:href="#Q"/><use transform="matrix(0.006510416666666667,0,0,0.006510416666666667,64.01041666666667,0)" xlink:href="#S"/></g><g id="h"><use transform="matrix(0.006510416666666667,0,0,0.006510416666666667,0,0)" xlink:href="#K"/><use transform="matrix(0.006510416666666667,0,0,0.006510416666666667,8.001302083333334,0)" xlink:href="#J"/><use transform="matrix(0.006510416666666667,0,0,0.006510416666666667,16.002604166666668,0)" xlink:href="#N"/><use transform="matrix(0.006510416666666667,0,0,0.006510416666666667,24.00390625,0)" xlink:href="#M"/><use transform="matrix(0.006510416666666667,0,0,0.006510416666666667,32.005208333333336,0)" xlink:href="#L"/><use transform="matrix(0.006510416666666667,0,0,0.006510416666666667,40.00651041666667,0)" xlink:href="#R"/><use transform="matrix(0.006510416666666667,0,0,0.006510416666666667,48.00781250000001,0)" xlink:href="#S"/></g><g id="i"><use transform="matrix(0.006510416666666667,0,0,0.006510416666666667,0,0)" xlink:href="#R"/><use transform="matrix(0.006510416666666667,0,0,0.006510416666666667,8.001302083333334,0)" xlink:href="#V"/><use transform="matrix(0.006510416666666667,0,0,0.006510416666666667,16.002604166666668,0)" xlink:href="#R"/><use transform="matrix(0.006510416666666667,0,0,0.006510416666666667,24.00390625,0)" xlink:href="#Q"/><use transform="matrix(0.006510416666666667,0,0,0.006510416666666667,32.005208333333336,0)" xlink:href="#W"/><use transform="matrix(0.006510416666666667,0,0,0.006510416666666667,40.00651041666667,0)" xlink:href="#R"/><use transform="matrix(0.006510416666666667,0,0,0.006510416666666667,48.00781250000001,0)" xlink:href="#I"/><use transform="matrix(0.006510416666666667,0,0,0.006510416666666667,56.00911458333335,0)" xlink:href="#W"/><use transform="matrix(0.006510416666666667,0,0,0.006510416666666667,64.01041666666667,0)" xlink:href="#L"/></g><g id="j"><use transform="matrix(0.006510416666666667,0,0,0.006510416666666667,0,0)" xlink:href="#K"/><use transform="matrix(0.006510416666666667,0,0,0.006510416666666667,8.001302083333334,0)" xlink:href="#J"/><use transform="matrix(0.006510416666666667,0,0,0.006510416666666667,16.002604166666668,0)" xlink:href="#W"/><use transform="matrix(0.006510416666666667,0,0,0.006510416666666667,24.00390625,0)" xlink:href="#W"/></g><path d="M698-1104c312 3 392 244 392 558 0 315-82 566-392 566-169 0-277-65-331-184h-5c8 188 2 394 4 589H185V-858c0-76-1-156-6-224h175c6 52 9 120 10 178h4c58-122 150-202 330-200zm-49 991c225 0 255-203 255-433 0-225-32-419-253-419-236 0-285 192-285 441 0 237 53 411 283 411" id="X"/><path d="M168 279c222 39 310-114 368-290L66-1082h192c120 299 249 590 362 896 115-301 235-597 351-896h190L705 0c-65 164-130 320-275 396-67 36-177 35-262 18V279" id="Y"/><g id="k"><use transform="matrix(0.006510416666666667,0,0,0.006510416666666667,0,0)" xlink:href="#L"/><use transform="matrix(0.006510416666666667,0,0,0.006510416666666667,8.001302083333334,0)" xlink:href="#P"/><use transform="matrix(0.006510416666666667,0,0,0.006510416666666667,16.002604166666668,0)" xlink:href="#X"/><use transform="matrix(0.006510416666666667,0,0,0.006510416666666667,24.00390625,0)" xlink:href="#U"/><use transform="matrix(0.006510416666666667,0,0,0.006510416666666667,32.005208333333336,0)" xlink:href="#Y"/></g><path d="M615-1102c343 0 484 203 482 560-1 347-147 562-488 562-336 0-475-219-479-562-4-349 156-560 485-560zm-8 989c240 0 301-180 301-429 0-245-55-427-290-427-236 0-299 181-299 427 0 243 61 429 288 429" id="Z"/><g id="l"><use transform="matrix(0.006510416666666667,0,0,0.006510416666666667,0,0)" xlink:href="#S"/><use transform="matrix(0.006510416666666667,0,0,0.006510416666666667,8.001302083333334,0)" xlink:href="#R"/><use transform="matrix(0.006510416666666667,0,0,0.006510416666666667,16.002604166666668,0)" xlink:href="#U"/><use transform="matrix(0.006510416666666667,0,0,0.006510416666666667,24.00390625,0)" xlink:href="#R"/><use transform="matrix(0.006510416666666667,0,0,0.006510416666666667,32.005208333333336,0)" xlink:href="#N"/><use transform="matrix(0.006510416666666667,0,0,0.006510416666666667,40.00651041666667,0)" xlink:href="#Z"/><use transform="matrix(0.006510416666666667,0,0,0.006510416666666667,48.00781250000001,0)" xlink:href="#J"/><use transform="matrix(0.006510416666666667,0,0,0.006510416666666667,56.00911458333335,0)" xlink:href="#U"/></g><path d="M611-1370c266 0 451 106 451 368 0 147-77 243-154 327-132 144-316 255-451 395-42 44-75 87-96 134h723V0H144v-117c124-264 387-411 582-603 73-72 151-147 151-271 0-161-104-231-266-231-163 0-249 90-268 238l-184-17c35-233 185-369 452-369" id="aa"/><g id="m"><use transform="matrix(0.006510416666666667,0,0,0.006510416666666667,0,0)" xlink:href="#I"/><use transform="matrix(0.006510416666666667,0,0,0.006510416666666667,8.001302083333334,0)" xlink:href="#J"/><use transform="matrix(0.006510416666666667,0,0,0.006510416666666667,16.002604166666668,0)" xlink:href="#K"/><use transform="matrix(0.006510416666666667,0,0,0.006510416666666667,24.00390625,0)" xlink:href="#K"/><use transform="matrix(0.006510416666666667,0,0,0.006510416666666667,32.005208333333336,0)" xlink:href="#L"/><use transform="matrix(0.006510416666666667,0,0,0.006510416666666667,40.00651041666667,0)" xlink:href="#M"/><use transform="matrix(0.006510416666666667,0,0,0.006510416666666667,48.00781250000001,0)" xlink:href="#N"/><use transform="matrix(0.006510416666666667,0,0,0.006510416666666667,56.00911458333335,0)" xlink:href="#aa"/></g><g id="n"><use transform="matrix(0.006510416666666667,0,0,0.006510416666666667,0,0)" xlink:href="#R"/><use transform="matrix(0.006510416666666667,0,0,0.006510416666666667,8.001302083333334,0)" xlink:href="#W"/><use transform="matrix(0.006510416666666667,0,0,0.006510416666666667,16.002604166666668,0)" xlink:href="#J"/></g><g id="o"><use transform="matrix(0.006510416666666667,0,0,0.006510416666666667,0,0)" xlink:href="#Z"/><use transform="matrix(0.006510416666666667,0,0,0.006510416666666667,8.001302083333334,0)" xlink:href="#X"/><use transform="matrix(0.006510416666666667,0,0,0.006510416666666667,16.002604166666668,0)" xlink:href="#O"/></g><g id="p"><use transform="matrix(0.006510416666666667,0,0,0.006510416666666667,0,0)" xlink:href="#Z"/><use transform="matrix(0.006510416666666667,0,0,0.006510416666666667,8.001302083333334,0)" xlink:href="#X"/><use transform="matrix(0.006510416666666667,0,0,0.006510416666666667,16.002604166666668,0)" xlink:href="#aa"/></g><g id="q"><use transform="matrix(0.006510416666666667,0,0,0.006510416666666667,0,0)" xlink:href="#L"/><use transform="matrix(0.006510416666666667,0,0,0.006510416666666667,8.001302083333334,0)" xlink:href="#T"/></g><path d="M873-819c-18-114-119-146-250-146-163 0-245 50-245 151 0 151 170 148 294 185 182 54 388 94 388 320 0 240-189 325-439 329-245 4-410-69-454-268l159-31c24 133 136 168 295 165 144-2 270-31 270-171 0-164-195-160-331-202-167-52-350-87-350-299 0-218 173-315 413-313 220 2 373 77 412 260" id="ab"/><g id="r"><use transform="matrix(0.006510416666666667,0,0,0.006510416666666667,0,0)" xlink:href="#I"/><use transform="matrix(0.006510416666666667,0,0,0.006510416666666667,8.001302083333334,0)" xlink:href="#J"/><use transform="matrix(0.006510416666666667,0,0,0.006510416666666667,16.002604166666668,0)" xlink:href="#ab"/><use transform="matrix(0.006510416666666667,0,0,0.006510416666666667,24.00390625,0)" xlink:href="#Y"/></g><g id="s"><use transform="matrix(0.006510416666666667,0,0,0.006510416666666667,0,0)" xlink:href="#M"/><use transform="matrix(0.006510416666666667,0,0,0.006510416666666667,8.001302083333334,0)" xlink:href="#L"/><use transform="matrix(0.006510416666666667,0,0,0.006510416666666667,16.002604166666668,0)" xlink:href="#ab"/></g><g id="t"><use transform="matrix(0.006510416666666667,0,0,0.006510416666666667,0,0)" xlink:href="#V"/><use transform="matrix(0.006510416666666667,0,0,0.006510416666666667,8.001302083333334,0)" xlink:href="#R"/><use transform="matrix(0.006510416666666667,0,0,0.006510416666666667,16.002604166666668,0)" xlink:href="#W"/><use transform="matrix(0.006510416666666667,0,0,0.006510416666666667,24.00390625,0)" xlink:href="#Q"/><use transform="matrix(0.006510416666666667,0,0,0.006510416666666667,32.005208333333336,0)" xlink:href="#S"/></g><g id="u"><use transform="matrix(0.006510416666666667,0,0,0.006510416666666667,0,0)" xlink:href="#K"/><use transform="matrix(0.006510416666666667,0,0,0.006510416666666667,8.001302083333334,0)" xlink:href="#Q"/><use transform="matrix(0.006510416666666667,0,0,0.006510416666666667,16.002604166666668,0)" xlink:href="#K"/><use transform="matrix(0.006510416666666667,0,0,0.006510416666666667,24.00390625,0)" xlink:href="#Z"/></g><path d="M1018 0H814c-67-224-138-444-200-673C552-442 476-224 407 0H204L21-1082h178c43 310 105 601 126 933 54-225 128-425 193-638h193c63 212 134 415 185 638 22-336 90-622 136-933h176" id="ac"/><g id="v"><use transform="matrix(0.006510416666666667,0,0,0.006510416666666667,0,0)" xlink:href="#M"/><use transform="matrix(0.006510416666666667,0,0,0.006510416666666667,8.001302083333334,0)" xlink:href="#ac"/></g><g id="w"><use transform="matrix(0.006510416666666667,0,0,0.006510416666666667,0,0)" xlink:href="#S"/><use transform="matrix(0.006510416666666667,0,0,0.006510416666666667,8.001302083333334,0)" xlink:href="#R"/><use transform="matrix(0.006510416666666667,0,0,0.006510416666666667,16.002604166666668,0)" xlink:href="#U"/><use transform="matrix(0.006510416666666667,0,0,0.006510416666666667,24.00390625,0)" xlink:href="#R"/><use transform="matrix(0.006510416666666667,0,0,0.006510416666666667,32.005208333333336,0)" xlink:href="#N"/><use transform="matrix(0.006510416666666667,0,0,0.006510416666666667,40.00651041666667,0)" xlink:href="#Q"/><use transform="matrix(0.006510416666666667,0,0,0.006510416666666667,48.00781250000001,0)" xlink:href="#T"/></g><g id="x"><use transform="matrix(0.006510416666666667,0,0,0.006510416666666667,0,0)" xlink:href="#K"/><use transform="matrix(0.006510416666666667,0,0,0.006510416666666667,8.001302083333334,0)" xlink:href="#J"/><use transform="matrix(0.006510416666666667,0,0,0.006510416666666667,16.002604166666668,0)" xlink:href="#W"/><use transform="matrix(0.006510416666666667,0,0,0.006510416666666667,24.00390625,0)" xlink:href="#W"/></g><g id="y"><use transform="matrix(0.006510416666666667,0,0,0.006510416666666667,0,0)" xlink:href="#L"/><use transform="matrix(0.006510416666666667,0,0,0.006510416666666667,8.001302083333334,0)" xlink:href="#P"/><use transform="matrix(0.006510416666666667,0,0,0.006510416666666667,16.002604166666668,0)" xlink:href="#X"/><use transform="matrix(0.006510416666666667,0,0,0.006510416666666667,24.00390625,0)" xlink:href="#U"/><use transform="matrix(0.006510416666666667,0,0,0.006510416666666667,32.005208333333336,0)" xlink:href="#Y"/></g><g id="z"><use transform="matrix(0.006510416666666667,0,0,0.006510416666666667,0,0)" xlink:href="#S"/><use transform="matrix(0.006510416666666667,0,0,0.006510416666666667,8.001302083333334,0)" xlink:href="#R"/><use transform="matrix(0.006510416666666667,0,0,0.006510416666666667,16.002604166666668,0)" xlink:href="#U"/><use transform="matrix(0.006510416666666667,0,0,0.006510416666666667,24.00390625,0)" xlink:href="#R"/><use transform="matrix(0.006510416666666667,0,0,0.006510416666666667,32.005208333333336,0)" xlink:href="#N"/><use transform="matrix(0.006510416666666667,0,0,0.006510416666666667,40.00651041666667,0)" xlink:href="#Z"/><use transform="matrix(0.006510416666666667,0,0,0.006510416666666667,48.00781250000001,0)" xlink:href="#J"/><use transform="matrix(0.006510416666666667,0,0,0.006510416666666667,56.00911458333335,0)" xlink:href="#U"/></g><path d="M631 20c-350 0-501-215-501-562 0-355 162-560 502-560 250 0 399 118 446 323l-192 14c-23-124-109-196-262-196-242 0-305 171-305 415 1 245 61 427 304 427 151 0 248-77 267-215l190 12C1039-107 883 20 631 20" id="ad"/><path d="M1048-32c-2 300-135 456-433 456-222-1-358-88-400-267l184-25c22 99 100 157 222 156 184-2 248-125 248-315 0-64 3-133-2-194C807-100 706-13 524-12c-306 0-381-228-381-537 0-318 85-550 400-550 164 0 271 83 325 202h3c1-60 3-134 12-185h171c-13 339-4 702-6 1050zM585-145c210-8 284-178 284-406 0-192-52-331-177-392-33-16-69-22-104-22-223 2-259 184-259 414 0 229 31 415 256 406" id="ae"/><g id="A"><use transform="matrix(0.006510416666666667,0,0,0.006510416666666667,0,0)" xlink:href="#ad"/><use transform="matrix(0.006510416666666667,0,0,0.006510416666666667,8.001302083333334,0)" xlink:href="#Z"/><use transform="matrix(0.006510416666666667,0,0,0.006510416666666667,16.002604166666668,0)" xlink:href="#T"/><use transform="matrix(0.006510416666666667,0,0,0.006510416666666667,24.00390625,0)" xlink:href="#U"/><use transform="matrix(0.006510416666666667,0,0,0.006510416666666667,32.005208333333336,0)" xlink:href="#M"/><use transform="matrix(0.006510416666666667,0,0,0.006510416666666667,40.00651041666667,0)" xlink:href="#Z"/><use transform="matrix(0.006510416666666667,0,0,0.006510416666666667,48.00781250000001,0)" xlink:href="#W"/><use transform="matrix(0.006510416666666667,0,0,0.006510416666666667,56.00911458333335,0)" xlink:href="#N"/><use transform="matrix(0.006510416666666667,0,0,0.006510416666666667,64.01041666666667,0)" xlink:href="#W"/><use transform="matrix(0.006510416666666667,0,0,0.006510416666666667,72.01171875,0)" xlink:href="#Z"/><use transform="matrix(0.006510416666666667,0,0,0.006510416666666667,80.01302083333333,0)" xlink:href="#ae"/><use transform="matrix(0.006510416666666667,0,0,0.006510416666666667,88.01432291666666,0)" xlink:href="#Q"/><use transform="matrix(0.006510416666666667,0,0,0.006510416666666667,96.01562499999999,0)" xlink:href="#ad"/></g><path d="M914 0L548-499l-132 98V0H236v-1484h180v927l475-525h211L663-617 1125 0H914" id="af"/><g id="B"><use transform="matrix(0.006510416666666667,0,0,0.006510416666666667,0,0)" xlink:href="#ad"/><use transform="matrix(0.006510416666666667,0,0,0.006510416666666667,8.001302083333334,0)" xlink:href="#W"/><use transform="matrix(0.006510416666666667,0,0,0.006510416666666667,16.002604166666668,0)" xlink:href="#af"/></g><g id="C"><use transform="matrix(0.006510416666666667,0,0,0.006510416666666667,0,0)" xlink:href="#M"/><use transform="matrix(0.006510416666666667,0,0,0.006510416666666667,8.001302083333334,0)" xlink:href="#ab"/><use transform="matrix(0.006510416666666667,0,0,0.006510416666666667,16.002604166666668,0)" xlink:href="#U"/></g><g id="D"><use transform="matrix(0.006510416666666667,0,0,0.006510416666666667,0,0)" xlink:href="#P"/><use transform="matrix(0.006510416666666667,0,0,0.006510416666666667,8.001302083333334,0)" xlink:href="#Q"/><use transform="matrix(0.006510416666666667,0,0,0.006510416666666667,16.002604166666668,0)" xlink:href="#I"/><use transform="matrix(0.006510416666666667,0,0,0.006510416666666667,24.00390625,0)" xlink:href="#N"/><use transform="matrix(0.006510416666666667,0,0,0.006510416666666667,32.005208333333336,0)" xlink:href="#Q"/><use transform="matrix(0.006510416666666667,0,0,0.006510416666666667,40.00651041666667,0)" xlink:href="#T"/><use transform="matrix(0.006510416666666667,0,0,0.006510416666666667,48.00781250000001,0)" xlink:href="#X"/></g><g id="E"><use transform="matrix(0.006510416666666667,0,0,0.006510416666666667,0,0)" xlink:href="#R"/><use transform="matrix(0.006510416666666667,0,0,0.006510416666666667,8.001302083333334,0)" xlink:href="#ad"/><use transform="matrix(0.006510416666666667,0,0,0.006510416666666667,16.002604166666668,0)" xlink:href="#af"/></g><g id="F"><use transform="matrix(0.006510416666666667,0,0,0.006510416666666667,0,0)" xlink:href="#S"/><use transform="matrix(0.006510416666666667,0,0,0.006510416666666667,8.001302083333334,0)" xlink:href="#U"/><use transform="matrix(0.006510416666666667,0,0,0.006510416666666667,16.002604166666668,0)" xlink:href="#T"/><use transform="matrix(0.006510416666666667,0,0,0.006510416666666667,24.00390625,0)" xlink:href="#N"/><use transform="matrix(0.006510416666666667,0,0,0.006510416666666667,32.005208333333336,0)" xlink:href="#S"/><use transform="matrix(0.006510416666666667,0,0,0.006510416666666667,40.00651041666667,0)" xlink:href="#R"/><use transform="matrix(0.006510416666666667,0,0,0.006510416666666667,48.00781250000001,0)" xlink:href="#U"/><use transform="matrix(0.006510416666666667,0,0,0.006510416666666667,56.00911458333335,0)" xlink:href="#R"/><use transform="matrix(0.006510416666666667,0,0,0.006510416666666667,64.01041666666667,0)" xlink:href="#N"/><use transform="matrix(0.006510416666666667,0,0,0.006510416666666667,72.01171875,0)" xlink:href="#Q"/><use transform="matrix(0.006510416666666667,0,0,0.006510416666666667,80.01302083333333,0)" xlink:href="#T"/></g><g id="G"><use transform="matrix(0.006510416666666667,0,0,0.006510416666666667,0,0)" xlink:href="#S"/><use transform="matrix(0.006510416666666667,0,0,0.006510416666666667,8.001302083333334,0)" xlink:href="#U"/><use transform="matrix(0.006510416666666667,0,0,0.006510416666666667,16.002604166666668,0)" xlink:href="#T"/><use transform="matrix(0.006510416666666667,0,0,0.006510416666666667,24.00390625,0)" xlink:href="#N"/><use transform="matrix(0.006510416666666667,0,0,0.006510416666666667,32.005208333333336,0)" xlink:href="#S"/><use transform="matrix(0.006510416666666667,0,0,0.006510416666666667,40.00651041666667,0)" xlink:href="#R"/><use transform="matrix(0.006510416666666667,0,0,0.006510416666666667,48.00781250000001,0)" xlink:href="#U"/><use transform="matrix(0.006510416666666667,0,0,0.006510416666666667,56.00911458333335,0)" xlink:href="#R"/><use transform="matrix(0.006510416666666667,0,0,0.006510416666666667,64.01041666666667,0)" xlink:href="#N"/><use transform="matrix(0.006510416666666667,0,0,0.006510416666666667,72.01171875,0)" xlink:href="#Z"/><use transform="matrix(0.006510416666666667,0,0,0.006510416666666667,80.01302083333333,0)" xlink:href="#J"/><use transform="matrix(0.006510416666666667,0,0,0.006510416666666667,88.01432291666666,0)" xlink:href="#U"/></g><g id="H"><use transform="matrix(0.006510416666666667,0,0,0.006510416666666667,0,0)" xlink:href="#ab"/><use transform="matrix(0.006510416666666667,0,0,0.006510416666666667,8.001302083333334,0)" xlink:href="#U"/><use transform="matrix(0.006510416666666667,0,0,0.006510416666666667,16.002604166666668,0)" xlink:href="#R"/><use transform="matrix(0.006510416666666667,0,0,0.006510416666666667,24.00390625,0)" xlink:href="#U"/><use transform="matrix(0.006510416666666667,0,0,0.006510416666666667,32.005208333333336,0)" xlink:href="#J"/><use transform="matrix(0.006510416666666667,0,0,0.006510416666666667,40.00651041666667,0)" xlink:href="#ab"/></g></defs></g></svg>